<svg width="52" height="53" viewBox="0 0 52 53" fill="none" xmlns="http://www.w3.org/2000/svg">
<rect x="0.5" y="0.625" width="51" height="51" rx="7.5" fill="#F7F7F8"/>
<rect x="0.5" y="0.625" width="51" height="51" rx="7.5" stroke="#F1F1F3"/>
<g clip-path="url(#clip0_41_279)">
<path d="M38 26.125C38 19.4976 32.6274 14.125 26 14.125C19.3726 14.125 14 19.4976 14 26.125C14 32.1145 18.3882 37.079 24.125 37.9792V29.5937H21.0781V26.125H24.125V23.4812C24.125 20.4738 25.9166 18.8125 28.6576 18.8125C29.9701 18.8125 31.3438 19.0469 31.3438 19.0469V22H29.8306C28.34 22 27.875 22.9251 27.875 23.875V26.125H31.2031L30.6711 29.5937H27.875V37.9792C33.6118 37.079 38 32.1145 38 26.125Z" fill="#333333"/>
</g>
<defs>
<clipPath id="clip0_41_279">
<rect width="24" height="24" fill="white" transform="translate(14 14.125)"/>
</clipPath>
</defs>
</svg>
