<svg width="52" height="53" viewBox="0 0 52 53" fill="none" xmlns="http://www.w3.org/2000/svg">
<rect x="0.5" y="0.625" width="51" height="51" rx="7.5" fill="#F7F7F8"/>
<rect x="0.5" y="0.625" width="51" height="51" rx="7.5" stroke="#F1F1F3"/>
<g clip-path="url(#clip0_41_285)">
<path d="M36.2234 14.125H15.7719C14.7922 14.125 14 14.8984 14 15.8547V36.3906C14 37.3469 14.7922 38.125 15.7719 38.125H36.2234C37.2031 38.125 38 37.3469 38 36.3953V15.8547C38 14.8984 37.2031 14.125 36.2234 14.125ZM21.1203 34.5766H17.5578V23.1203H21.1203V34.5766ZM19.3391 21.5594C18.1953 21.5594 17.2719 20.6359 17.2719 19.4969C17.2719 18.3578 18.1953 17.4344 19.3391 17.4344C20.4781 17.4344 21.4016 18.3578 21.4016 19.4969C21.4016 20.6312 20.4781 21.5594 19.3391 21.5594ZM34.4516 34.5766H30.8937V29.0078C30.8937 27.6812 30.8703 25.9703 29.0422 25.9703C27.1906 25.9703 26.9094 27.4187 26.9094 28.9141V34.5766H23.3563V23.1203H26.7687V24.6859H26.8156C27.2891 23.7859 28.4516 22.8344 30.1813 22.8344C33.7859 22.8344 34.4516 25.2063 34.4516 28.2906V34.5766Z" fill="#333333"/>
</g>
<defs>
<clipPath id="clip0_41_285">
<rect width="24" height="24" fill="white" transform="translate(14 14.125)"/>
</clipPath>
</defs>
</svg>
