<svg width="52" height="53" viewBox="0 0 52 53" fill="none" xmlns="http://www.w3.org/2000/svg">
<rect x="0.5" y="0.875" width="51" height="51" rx="7.5" fill="#F7F7F8"/>
<rect x="0.5" y="0.875" width="51" height="51" rx="7.5" stroke="#F1F1F3"/>
<path fill-rule="evenodd" clip-rule="evenodd" d="M25.5397 36.726C25.57 36.7435 25.5937 36.7571 25.6105 36.7665L25.6384 36.7821C25.8613 36.9044 26.1378 36.9035 26.3608 36.7825L26.3895 36.7665C26.4063 36.7571 26.43 36.7435 26.4603 36.726C26.5207 36.691 26.607 36.64 26.7155 36.5732C26.9325 36.4396 27.2388 36.2426 27.6046 35.9841C28.3351 35.4681 29.3097 34.7024 30.2865 33.7023C32.2307 31.7118 34.25 28.7212 34.25 24.875C34.25 20.3187 30.5563 16.625 26 16.625C21.4437 16.625 17.75 20.3187 17.75 24.875C17.75 28.7212 19.7693 31.7118 21.7135 33.7023C22.6903 34.7024 23.6649 35.4681 24.3954 35.9841C24.7612 36.2426 25.0675 36.4396 25.2845 36.5732C25.393 36.64 25.4793 36.691 25.5397 36.726ZM26 27.875C27.6569 27.875 29 26.5319 29 24.875C29 23.2181 27.6569 21.875 26 21.875C24.3431 21.875 23 23.2181 23 24.875C23 26.5319 24.3431 27.875 26 27.875Z" fill="#262626"/>
</svg>
