<svg width="52" height="53" viewBox="0 0 52 53" fill="none" xmlns="http://www.w3.org/2000/svg">
<rect x="0.5" y="1.375" width="51" height="51" rx="7.5" fill="#F7F7F8"/>
<rect x="0.5" y="1.375" width="51" height="51" rx="7.5" stroke="#F1F1F3"/>
<path d="M15.5 23.5441V32.125C15.5 33.7819 16.8431 35.125 18.5 35.125H33.5C35.1569 35.125 36.5 33.7819 36.5 32.125V23.5441L27.5723 29.0381C26.6081 29.6314 25.3919 29.6314 24.4277 29.0381L15.5 23.5441Z" fill="#262626"/>
<path d="M36.5 21.7828V21.625C36.5 19.9681 35.1569 18.625 33.5 18.625H18.5C16.8431 18.625 15.5 19.9681 15.5 21.625V21.7828L25.2139 27.7606C25.696 28.0573 26.304 28.0573 26.7861 27.7606L36.5 21.7828Z" fill="#262626"/>
</svg>
