<svg width="52" height="53" viewBox="0 0 52 53" fill="none" xmlns="http://www.w3.org/2000/svg">
<rect x="0.5" y="1.125" width="51" height="51" rx="7.5" fill="#F7F7F8"/>
<rect x="0.5" y="1.125" width="51" height="51" rx="7.5" stroke="#F1F1F3"/>
<path fill-rule="evenodd" clip-rule="evenodd" d="M15.5 19.125C15.5 17.4681 16.8431 16.125 18.5 16.125H19.8716C20.732 16.125 21.482 16.7106 21.6906 17.5452L22.7964 21.9684C22.9794 22.7003 22.7059 23.4705 22.1024 23.9232L20.8088 24.8934C20.6745 24.9941 20.6453 25.1417 20.683 25.2447C21.8185 28.3445 24.2805 30.8065 27.3803 31.942C27.4833 31.9797 27.6309 31.9505 27.7316 31.8162L28.7018 30.5226C29.1545 29.9191 29.9247 29.6456 30.6566 29.8286L35.0798 30.9344C35.9144 31.143 36.5 31.893 36.5 32.7534V34.125C36.5 35.7819 35.1569 37.125 33.5 37.125H31.25C22.5515 37.125 15.5 30.0735 15.5 21.375V19.125Z" fill="#262626"/>
</svg>
