<svg width="52" height="53" viewBox="0 0 52 53" fill="none" xmlns="http://www.w3.org/2000/svg">
<rect x="0.5" y="0.625" width="51" height="51" rx="7.5" fill="#F7F7F8"/>
<rect x="0.5" y="0.625" width="51" height="51" rx="7.5" stroke="#F1F1F3"/>
<g clip-path="url(#clip0_41_282)">
<path d="M21.5502 35.875C30.6045 35.875 35.5583 28.3717 35.5583 21.8669C35.5583 21.6559 35.5536 21.4403 35.5442 21.2294C36.5079 20.5325 37.3395 19.6693 38 18.6803C37.1025 19.0796 36.1496 19.3404 35.1739 19.4537C36.2013 18.8379 36.9705 17.8705 37.3391 16.7308C36.3726 17.3036 35.3156 17.7076 34.2134 17.9256C33.4708 17.1366 32.489 16.6141 31.4197 16.4391C30.3504 16.264 29.2532 16.4461 28.2977 16.9571C27.3423 17.4681 26.5818 18.2797 26.1338 19.2663C25.6859 20.2529 25.5754 21.3596 25.8195 22.4153C23.8625 22.3171 21.9479 21.8087 20.2 20.9231C18.452 20.0375 16.9097 18.7944 15.673 17.2745C15.0444 18.3582 14.8521 19.6406 15.135 20.8611C15.418 22.0815 16.1551 23.1484 17.1964 23.845C16.4146 23.8202 15.65 23.6097 14.9656 23.2309V23.2919C14.9649 24.4291 15.3581 25.5316 16.0783 26.4118C16.7985 27.292 17.8013 27.8956 18.9162 28.12C18.1921 28.3181 17.432 28.347 16.6948 28.2044C17.0095 29.1824 17.6216 30.0379 18.4458 30.6513C19.27 31.2648 20.2651 31.6056 21.2923 31.6262C19.5484 32.9961 17.3942 33.7391 15.1766 33.7356C14.7833 33.735 14.3904 33.7109 14 33.6634C16.2529 35.1087 18.8735 35.8764 21.5502 35.875Z" fill="#333333"/>
</g>
<defs>
<clipPath id="clip0_41_282">
<rect width="24" height="24" fill="white" transform="translate(14 14.125)"/>
</clipPath>
</defs>
</svg>
